# xmcd CD database file
#
# Track frame offsets:
#	150
#	64884
#	118590
#	179468
#
# Disc length: 3163 seconds
#
# Revision: 0
# Processed by: cddbd v1.5.2PL0 Copyright (c) Steve Scherf et al.
# Submitted via: CDex 1.51
#
DISCID=340c5904
DTITLE=漫遊SPA音樂紀行 - 淨化 Purify - 海洋紀事
DYEAR=1900
DGENRE=New Age
TTITLE0=Les trois ilets
TTITLE1=Le diamant des iles
TTITLE2=Sainte Lucie
TTITLE3=Kakambou
EXTD=
EXTT0=
EXTT1=
EXTT2=
EXTT3=
PLAYORDER=
